<svg width="28" height="18" viewBox="0 0 28 18" fill="none" xmlns="http://www.w3.org/2000/svg">
<g clip-path="url(#clip0_441_543)">
<path d="M26.8068 0.179688H4.03339V17.8196H26.8068V0.179688Z" fill="#69B42E"/>
<path d="M0 0V18H28V0H0ZM4.11044 17.7035V0.243209H26.6968V17.7035H4.11044Z" fill="black"/>
<path d="M0.566956 16.0061C0.566956 14.7837 1.43158 14.4858 2.10063 14.4858C2.70449 14.4858 3.60797 14.7411 3.60797 16.0061V17.6647H0.566956V16.0061ZM2.84805 16.5071V16.274C2.84805 16.0149 2.76968 15.7038 2.08351 15.7038C1.37956 15.7038 1.28408 15.9934 1.28408 16.274V16.5071H2.84805Z" fill="white"/>
<path d="M1.33217 13.1206H1.84911V13.1035C1.562 13.0171 1.28015 12.7834 1.28015 12.4208C1.28015 12.3649 1.28871 12.3002 1.30188 12.2437H2.21458C2.1968 12.3129 2.17968 12.3903 2.17968 12.4684C2.17968 12.7923 2.38843 13.0514 2.78354 13.0514H3.60866V14.1398H1.33217V13.1206Z" fill="white"/>
<path d="M2.77234 12.3427V11.401H3.61063V12.3427H2.77234Z" fill="white"/>
<path d="M2.51352 9.9551V9.93796L0.576172 9.45853V8.34853L2.51352 7.8818V7.86465L0.576172 7.49761V6.46509L3.60863 7.1909V8.43489L1.62716 8.93591V8.95306L3.60863 9.42805V10.6981L0.576172 11.4017V10.3177L2.51352 9.9551Z" fill="white"/>
<path d="M0.566956 3.67926H1.28408V5.16074H1.72265V3.74403H2.41804V5.16074H2.89151V3.64941H3.60863V6.31836H0.566956V3.67926Z" fill="white"/>
<path d="M0.566956 1.47643C0.566956 0.530904 1.07533 0.357546 1.35783 0.357546C1.70553 0.357546 1.98803 0.59504 2.05717 0.970966H2.07429C2.11776 0.668701 2.31794 0.28833 2.79537 0.28833C3.56451 0.28833 3.60797 1.15194 3.60797 1.53676V3.29447H0.566956V1.47643ZM1.77072 2.19781V1.92602C1.77072 1.52851 1.56197 1.48977 1.47505 1.48977C1.34927 1.48977 1.18398 1.58058 1.18398 1.89999V2.19781H1.77072ZM2.9916 2.19781V1.90443C2.9916 1.53295 2.78746 1.47199 2.67881 1.47199C2.37062 1.47199 2.37062 1.83077 2.37062 1.92983V2.19781H2.9916Z" fill="white"/>
<path d="M10.6344 8.0868L15.406 5.46167L20.1716 8.08807C20.1716 8.08807 20.8124 10.3538 18.2837 12.2518C15.7662 14.141 15.057 14.1251 12.5144 12.2518C9.96534 10.3735 10.6344 8.0868 10.6344 8.0868Z" fill="black"/>
<path d="M15.3849 4.45782L18.6748 6.23522C18.7565 6.01931 18.7993 5.79516 18.7993 5.56147C18.7993 4.16699 17.2761 3.0354 15.4 3.0354C13.5219 3.0354 12.0001 4.16635 12.0001 5.56147C12.0001 5.78944 12.0416 6.01042 12.1167 6.22061L15.3849 4.45782Z" fill="black"/>
<path d="M21.1251 9.60205L23.7585 11.135L18.8243 16.9199L21.1251 9.60205Z" fill="black"/>
<path d="M21.2634 8.12561L20.9671 6.85559L26.0396 8.30151L22.8939 9.92967L23.3266 8.60758L21.2634 8.12561Z" fill="black"/>
<path d="M20.6721 6.03645L20.0031 5.13982L24.4994 3.74915L23.3806 7.17249L22.9176 5.59703L20.6721 6.03645Z" fill="black"/>
<path d="M19.4347 4.44444L18.4898 3.4805L19.7291 2.25366L18.3726 1.43958H21.9713L19.4347 4.44444Z" fill="black"/>
<path d="M9.67362 9.60205L7.04022 11.135L11.9745 16.9199L9.67362 9.60205Z" fill="black"/>
<path d="M9.53596 8.12561L9.83164 6.85559L4.75977 8.30151L7.90483 9.92967L7.47218 8.60758L9.53596 8.12561Z" fill="black"/>
<path d="M10.1267 6.03645L10.7957 5.13982L6.30005 3.74915L7.41886 7.17249L7.8818 5.59703L10.1267 6.03645Z" fill="black"/>
<path d="M11.3647 4.44444L12.309 3.4805L11.0696 2.25366L12.4262 1.43958H8.82806L11.3647 4.44444Z" fill="black"/>
<path d="M14.0007 11.3978H16.8066L17.0226 10.7647H13.7847L14.0007 11.3978ZM14.7382 13.5556C15.1953 13.6946 15.6154 13.6965 16.0698 13.5606L16.2212 13.1161H14.5881L14.7382 13.5556ZM14.4024 12.5738H16.4063L16.6223 11.9407H14.1864L14.4024 12.5738ZM13.599 10.2224H17.2077L17.4237 9.58929H13.383L13.599 10.2224ZM17.1392 6.41741L16.748 8.09257H16.7276L16.1047 6.40344H14.7475L14.1581 8.09257H14.1364L13.6767 6.41487L12.5164 7.05369L13.1973 9.04699H14.7942L15.3954 7.31976H15.4172L16.0197 9.04699H17.608L18.2883 7.05179L17.1392 6.41741Z" fill="white"/>
</g>
<defs>
<clipPath id="clip0_441_543">
<rect width="28" height="18" fill="white"/>
</clipPath>
</defs>
</svg>
